# xmcd CD database file
#
# Track frame offsets:
#	150
#	5346
#	26353
#	40318
#	70751
#	93446
#	130648
#	145832
#	191308
#
# Disc length: 2798 seconds
#
# Revision: 0
# Processed by: cddbd v1.5PL3 Copyright (c) Steve Scherf et al.
# Submitted via: CDex 1.50
#
DISCID=690aec09
DTITLE=E.C.L. - Skyground Explorers.
DYEAR=1997
DGENRE=
TTITLE0=P.
TTITLE1=星の降りる丘へ
TTITLE2=Windi'z road
TTITLE3=Airlia -The skyground explorers.-
TTITLE4=Aquarius -Sea paradise orchestra.-
TTITLE5=１０００年分の夢売ります。
TTITLE6=SYLPHEED -ESKA city final-
TTITLE7=GRAND PHOENIX
TTITLE8=恋星★通信 -Air midnight style.-
EXTD=YEAR: 1997
EXTT0=
EXTT1=
EXTT2=
EXTT3=
EXTT4=
EXTT5=
EXTT6=
EXTT7=
EXTT8=
PLAYORDER=
